# Blender 3.6.2
# www.blender.org
mtllib flipder.mtl
o flipder
v -0.280480 0.072020 -0.992341
v -0.301892 0.072020 -0.907432
v -0.280480 0.082906 -0.992341
v -0.301892 0.082906 -0.907432
v -0.306177 0.072020 -0.781492
v -0.306177 0.082906 -0.781492
v -0.292914 0.072020 -0.626848
v -0.292914 0.082906 -0.626848
v -0.263402 0.072020 -0.458638
v -0.263402 0.082906 -0.458638
v -0.220530 0.072020 -0.293327
v -0.220530 0.082906 -0.293327
v -0.168495 0.072020 -0.147098
v -0.168495 0.082906 -0.147098
v -0.112389 0.072020 -0.034264
v -0.112389 0.082906 -0.034264
v -0.057706 0.072020 0.034129
v -0.057706 0.082906 0.034129
v -0.009797 0.072020 0.051388
v -0.009797 0.082906 0.051388
v 0.026647 0.072020 0.015822
v 0.026647 0.082906 0.015822
v 0.048060 0.072020 -0.069087
v 0.048060 0.082906 -0.069087
v 0.052344 0.072020 -0.195027
v 0.052344 0.082906 -0.195027
v 0.039082 0.072020 -0.349671
v 0.039082 0.082906 -0.349671
v 0.009570 0.072020 -0.517881
v 0.009570 0.082906 -0.517881
v -0.033302 0.072020 -0.683191
v -0.033302 0.082906 -0.683191
v -0.085338 0.072020 -0.829420
v -0.085338 0.082906 -0.829420
v -0.141443 0.072020 -0.942254
v -0.141443 0.082906 -0.942254
v -0.196127 0.072020 -1.010647
v -0.196127 0.082906 -1.010647
v -0.244035 0.072020 -1.027906
v -0.244035 0.082906 -1.027906
v -0.126916 0.072020 -0.488259
v -0.126916 0.082906 -0.488259
v -0.307566 -0.069472 -1.054180
v -0.338654 -0.069472 -0.957058
v -0.349017 -0.069472 -0.814046
v -0.337639 -0.069472 -0.639144
v -0.305633 -0.069472 -0.449472
v -0.256134 -0.069472 -0.263598
v -0.193986 -0.069472 -0.099714
v -0.125273 -0.069472 0.026136
v -0.056720 -0.069472 0.101633
v 0.004961 -0.069472 0.119388
v 0.053733 -0.069472 0.077662
v 0.084822 -0.069472 -0.019461
v 0.095184 -0.069472 -0.162473
v 0.083806 -0.069472 -0.337374
v 0.051800 -0.069472 -0.527046
v 0.002301 -0.069472 -0.712921
v -0.059847 -0.069472 -0.876804
v -0.128560 -0.069472 -1.002654
v -0.197112 -0.069472 -1.078151
v -0.258793 -0.069472 -1.095906
v -0.307566 0.074501 -1.054180
v -0.338654 0.074501 -0.957058
v -0.349017 0.074501 -0.814046
v -0.337639 0.074501 -0.639144
v -0.305633 0.074501 -0.449472
v -0.256134 0.074501 -0.263598
v -0.193986 0.074501 -0.099714
v -0.125273 0.074501 0.026136
v -0.056720 0.074501 0.101633
v 0.004961 0.074501 0.119388
v 0.053733 0.074501 0.077662
v 0.084822 0.074501 -0.019461
v 0.095184 0.074501 -0.162473
v 0.083806 0.074501 -0.337374
v 0.051800 0.074501 -0.527046
v 0.002301 0.074501 -0.712921
v -0.059847 0.074501 -0.876804
v -0.128560 0.074501 -1.002654
v -0.197112 0.074501 -1.078151
v -0.258793 0.074501 -1.095906
v -0.126916 -0.069472 -0.488259
v -0.126916 0.074501 -0.488259
vn -0.9696 -0.0000 -0.2445
vn -0.9994 -0.0000 -0.0340
vn -0.9963 -0.0000 0.0855
vn -0.9850 -0.0000 0.1728
vn -0.9680 -0.0000 0.2510
vn -0.9421 -0.0000 0.3353
vn -0.8954 -0.0000 0.4452
vn -0.7810 -0.0000 0.6245
vn -0.3389 -0.0000 0.9408
vn 0.6984 -0.0000 0.7157
vn 0.9696 -0.0000 0.2445
vn 0.9994 -0.0000 0.0340
vn 0.9963 -0.0000 -0.0854
vn 0.9850 -0.0000 -0.1728
vn 0.9680 -0.0000 -0.2510
vn 0.9421 -0.0000 -0.3353
vn 0.8954 -0.0000 -0.4452
vn 0.7810 -0.0000 -0.6245
vn 0.3389 -0.0000 -0.9408
vn -0.6984 -0.0000 -0.7157
vn -0.0000 -1.0000 -0.0000
vn -0.0000 1.0000 -0.0000
vn -0.9524 -0.0000 -0.3049
vn -0.9974 -0.0000 -0.0723
vn -0.9979 -0.0000 0.0649
vn -0.9861 -0.0000 0.1664
vn -0.9663 -0.0000 0.2573
vn -0.9350 -0.0000 0.3546
vn -0.8777 -0.0000 0.4792
vn -0.7403 -0.0000 0.6722
vn -0.2766 -0.0000 0.9610
vn 0.6501 -0.0000 0.7599
vn 0.9524 -0.0000 0.3049
vn 0.9974 -0.0000 0.0723
vn 0.9979 -0.0000 -0.0649
vn 0.9861 -0.0000 -0.1664
vn 0.9663 -0.0000 -0.2573
vn 0.9350 -0.0000 -0.3546
vn 0.8777 -0.0000 -0.4792
vn 0.7403 -0.0000 -0.6722
vn 0.2766 -0.0000 -0.9610
vn -0.6501 -0.0000 -0.7599
vt 0.375000 0.312500
vt 0.387500 0.312500
vt 0.375000 0.687500
vt 0.387500 0.687500
vt 0.400000 0.312500
vt 0.400000 0.687500
vt 0.412500 0.312500
vt 0.412500 0.687500
vt 0.425000 0.312500
vt 0.425000 0.687500
vt 0.437500 0.312500
vt 0.437500 0.687500
vt 0.450000 0.312500
vt 0.450000 0.687500
vt 0.462500 0.312500
vt 0.462500 0.687500
vt 0.475000 0.312500
vt 0.475000 0.687500
vt 0.487500 0.312500
vt 0.487500 0.687500
vt 0.500000 0.312500
vt 0.500000 0.687500
vt 0.512500 0.312500
vt 0.512500 0.687500
vt 0.525000 0.312500
vt 0.525000 0.687500
vt 0.537500 0.312500
vt 0.537500 0.687500
vt 0.550000 0.312500
vt 0.550000 0.687500
vt 0.562500 0.312500
vt 0.562500 0.687500
vt 0.575000 0.312500
vt 0.575000 0.687500
vt 0.587500 0.312500
vt 0.587500 0.687500
vt 0.600000 0.312500
vt 0.600000 0.687500
vt 0.612500 0.312500
vt 0.612500 0.687500
vt 0.625000 0.312500
vt 0.625000 0.687500
vt 0.626409 0.064408
vt 0.648603 0.107966
vt 0.500000 0.156250
vt 0.591842 0.029841
vt 0.548284 0.007647
vt 0.500000 -0.000000
vt 0.451716 0.007647
vt 0.408159 0.029841
vt 0.373591 0.064409
vt 0.351397 0.107966
vt 0.343750 0.156250
vt 0.351397 0.204534
vt 0.373591 0.248091
vt 0.408159 0.282659
vt 0.451716 0.304853
vt 0.548284 0.304853
vt 0.591841 0.282659
vt 0.626409 0.248091
vt 0.648603 0.204534
vt 0.656250 0.156250
vt 0.648603 0.892034
vt 0.626409 0.935591
vt 0.500000 0.843750
vt 0.591841 0.970159
vt 0.548284 0.992353
vt 0.500000 1.000000
vt 0.451716 0.992353
vt 0.408159 0.970159
vt 0.373591 0.935591
vt 0.351397 0.892034
vt 0.343750 0.843750
vt 0.351397 0.795466
vt 0.373591 0.751909
vt 0.408159 0.717341
vt 0.451716 0.695147
vt 0.548284 0.695147
vt 0.591842 0.717341
vt 0.626409 0.751908
vt 0.648603 0.795466
vt 0.656250 0.843750
s 0
g flipder_PinballNuevo:phong2SG3.001
usemtl PinballNuevo:phong2SG3.001
f 1/1/1 2/2/1 3/3/1
f 3/3/1 2/2/1 4/4/1
f 2/2/2 5/5/2 4/4/2
f 4/4/2 5/5/2 6/6/2
f 5/5/3 7/7/3 6/6/3
f 6/6/3 7/7/3 8/8/3
f 7/7/4 9/9/4 8/8/4
f 8/8/4 9/9/4 10/10/4
f 9/9/5 11/11/5 10/10/5
f 10/10/5 11/11/5 12/12/5
f 11/11/6 13/13/6 12/12/6
f 12/12/6 13/13/6 14/14/6
f 13/13/7 15/15/7 14/14/7
f 14/14/7 15/15/7 16/16/7
f 15/15/8 17/17/8 16/16/8
f 16/16/8 17/17/8 18/18/8
f 17/17/9 19/19/9 18/18/9
f 18/18/9 19/19/9 20/20/9
f 19/19/10 21/21/10 20/20/10
f 20/20/10 21/21/10 22/22/10
f 21/21/11 23/23/11 22/22/11
f 22/22/11 23/23/11 24/24/11
f 23/23/12 25/25/12 24/24/12
f 24/24/12 25/25/12 26/26/12
f 25/25/13 27/27/13 26/26/13
f 26/26/13 27/27/13 28/28/13
f 27/27/14 29/29/14 28/28/14
f 28/28/14 29/29/14 30/30/14
f 29/29/15 31/31/15 30/30/15
f 30/30/15 31/31/15 32/32/15
f 31/31/16 33/33/16 32/32/16
f 32/32/16 33/33/16 34/34/16
f 33/33/17 35/35/17 34/34/17
f 34/34/17 35/35/17 36/36/17
f 35/35/18 37/37/18 36/36/18
f 36/36/18 37/37/18 38/38/18
f 37/37/19 39/39/19 38/38/19
f 38/38/19 39/39/19 40/40/19
f 39/39/20 1/41/20 40/40/20
f 40/40/20 1/41/20 3/42/20
f 2/43/21 1/44/21 41/45/21
f 5/46/21 2/43/21 41/45/21
f 7/47/21 5/46/21 41/45/21
f 9/48/21 7/47/21 41/45/21
f 11/49/21 9/48/21 41/45/21
f 13/50/21 11/49/21 41/45/21
f 15/51/21 13/50/21 41/45/21
f 17/52/21 15/51/21 41/45/21
f 19/53/21 17/52/21 41/45/21
f 21/54/21 19/53/21 41/45/21
f 23/55/21 21/54/21 41/45/21
f 25/56/21 23/55/21 41/45/21
f 27/57/21 25/56/21 41/45/21
f 29/21/21 27/57/21 41/45/21
f 31/58/21 29/21/21 41/45/21
f 33/59/21 31/58/21 41/45/21
f 35/60/21 33/59/21 41/45/21
f 37/61/21 35/60/21 41/45/21
f 39/62/21 37/61/21 41/45/21
f 1/44/21 39/62/21 41/45/21
f 3/63/22 4/64/22 42/65/22
f 4/64/22 6/66/22 42/65/22
f 6/66/22 8/67/22 42/65/22
f 8/67/22 10/68/22 42/65/22
f 10/68/22 12/69/22 42/65/22
f 12/69/22 14/70/22 42/65/22
f 14/70/22 16/71/22 42/65/22
f 16/71/22 18/72/22 42/65/22
f 18/72/22 20/73/22 42/65/22
f 20/73/22 22/74/22 42/65/22
f 22/74/22 24/75/22 42/65/22
f 24/75/22 26/76/22 42/65/22
f 26/76/22 28/77/22 42/65/22
f 28/77/22 30/22/22 42/65/22
f 30/22/22 32/78/22 42/65/22
f 32/78/22 34/79/22 42/65/22
f 34/79/22 36/80/22 42/65/22
f 36/80/22 38/81/22 42/65/22
f 38/81/22 40/82/22 42/65/22
f 40/82/22 3/63/22 42/65/22
g flipder_PinballNuevo:phong1SG6.001
usemtl PinballNuevo:phong1SG6.001
f 43/1/23 44/2/23 63/3/23
f 63/3/23 44/2/23 64/4/23
f 44/2/24 45/5/24 64/4/24
f 64/4/24 45/5/24 65/6/24
f 45/5/25 46/7/25 65/6/25
f 65/6/25 46/7/25 66/8/25
f 46/7/26 47/9/26 66/8/26
f 66/8/26 47/9/26 67/10/26
f 47/9/27 48/11/27 67/10/27
f 67/10/27 48/11/27 68/12/27
f 48/11/28 49/13/28 68/12/28
f 68/12/28 49/13/28 69/14/28
f 49/13/29 50/15/29 69/14/29
f 69/14/29 50/15/29 70/16/29
f 50/15/30 51/17/30 70/16/30
f 70/16/30 51/17/30 71/18/30
f 51/17/31 52/19/31 71/18/31
f 71/18/31 52/19/31 72/20/31
f 52/19/32 53/21/32 72/20/32
f 72/20/32 53/21/32 73/22/32
f 53/21/33 54/23/33 73/22/33
f 73/22/33 54/23/33 74/24/33
f 54/23/34 55/25/34 74/24/34
f 74/24/34 55/25/34 75/26/34
f 55/25/35 56/27/35 75/26/35
f 75/26/35 56/27/35 76/28/35
f 56/27/36 57/29/36 76/28/36
f 76/28/36 57/29/36 77/30/36
f 57/29/37 58/31/37 77/30/37
f 77/30/37 58/31/37 78/32/37
f 58/31/38 59/33/38 78/32/38
f 78/32/38 59/33/38 79/34/38
f 59/33/39 60/35/39 79/34/39
f 79/34/39 60/35/39 80/36/39
f 60/35/40 61/37/40 80/36/40
f 80/36/40 61/37/40 81/38/40
f 61/37/41 62/39/41 81/38/41
f 81/38/41 62/39/41 82/40/41
f 62/39/42 43/41/42 82/40/42
f 82/40/42 43/41/42 63/42/42
f 44/43/21 43/44/21 83/45/21
f 45/46/21 44/43/21 83/45/21
f 46/47/21 45/46/21 83/45/21
f 47/48/21 46/47/21 83/45/21
f 48/49/21 47/48/21 83/45/21
f 49/50/21 48/49/21 83/45/21
f 50/51/21 49/50/21 83/45/21
f 51/52/21 50/51/21 83/45/21
f 52/53/21 51/52/21 83/45/21
f 53/54/21 52/53/21 83/45/21
f 54/55/21 53/54/21 83/45/21
f 55/56/21 54/55/21 83/45/21
f 56/57/21 55/56/21 83/45/21
f 57/21/21 56/57/21 83/45/21
f 58/58/21 57/21/21 83/45/21
f 59/59/21 58/58/21 83/45/21
f 60/60/21 59/59/21 83/45/21
f 61/61/21 60/60/21 83/45/21
f 62/62/21 61/61/21 83/45/21
f 43/44/21 62/62/21 83/45/21
f 63/63/22 64/64/22 84/65/22
f 64/64/22 65/66/22 84/65/22
f 65/66/22 66/67/22 84/65/22
f 66/67/22 67/68/22 84/65/22
f 67/68/22 68/69/22 84/65/22
f 68/69/22 69/70/22 84/65/22
f 69/70/22 70/71/22 84/65/22
f 70/71/22 71/72/22 84/65/22
f 71/72/22 72/73/22 84/65/22
f 72/73/22 73/74/22 84/65/22
f 73/74/22 74/75/22 84/65/22
f 74/75/22 75/76/22 84/65/22
f 75/76/22 76/77/22 84/65/22
f 76/77/22 77/22/22 84/65/22
f 77/22/22 78/78/22 84/65/22
f 78/78/22 79/79/22 84/65/22
f 79/79/22 80/80/22 84/65/22
f 80/80/22 81/81/22 84/65/22
f 81/81/22 82/82/22 84/65/22
f 82/82/22 63/63/22 84/65/22
