# This file uses centimeters as units for non-parametric coordinates.

mtllib bonus.mtl
g default
v -0.718835 0.000000 0.195639
v 0.718836 0.000000 0.195639
v -0.000000 0.000000 -0.391278
v 0.000000 0.000000 0.391278
v 0.718835 0.000000 -0.195639
v -0.718836 0.000000 -0.195639
v -0.000000 0.000000 0.000000
v -0.830040 0.000000 0.000000
v -0.415020 0.000000 0.338856
v 0.000000 0.000000 0.195639
v -0.359418 0.000000 -0.097819
v -0.359418 0.000000 0.097819
v 0.415020 0.000000 0.338856
v 0.830040 0.000000 -0.000000
v 0.359418 0.000000 -0.097819
v 0.359418 0.000000 0.097819
v 0.415020 0.000000 -0.338856
v -0.415020 0.000000 -0.338856
v -0.000000 0.000000 -0.195639
v -0.539127 0.000000 -0.146729
v -0.801757 0.000000 -0.101270
v -0.594729 0.000000 0.048910
v -0.359418 0.000000 0.000000
v -0.566928 0.000000 -0.048910
v -0.801757 0.000000 0.101270
v -0.586927 0.000000 0.276675
v -0.387219 0.000000 0.218338
v -0.580828 0.000000 0.158079
v -0.214830 0.000000 0.377945
v 0.000000 0.000000 0.293458
v -0.179709 0.000000 0.146729
v -0.193609 0.000000 0.255898
v -0.000000 0.000000 0.097819
v -0.179709 0.000000 -0.048910
v -0.179709 0.000000 0.048910
v 0.214830 0.000000 0.377945
v 0.387219 0.000000 0.218338
v 0.179709 0.000000 0.146729
v 0.193609 0.000000 0.255898
v 0.586927 0.000000 0.276675
v 0.801757 0.000000 0.101270
v 0.594729 0.000000 0.048910
v 0.580828 0.000000 0.158079
v 0.801757 0.000000 -0.101270
v 0.539127 0.000000 -0.146729
v 0.359418 0.000000 -0.000000
v 0.566928 0.000000 -0.048910
v 0.179709 0.000000 -0.048910
v 0.179709 0.000000 0.048910
v 0.586927 0.000000 -0.276675
v 0.207510 0.000000 -0.267248
v 0.179709 0.000000 -0.146729
v 0.373318 0.000000 -0.206988
v 0.214830 0.000000 -0.377945
v -0.214830 0.000000 -0.377945
v -0.207510 0.000000 -0.267248
v -0.000000 0.000000 -0.316157
v -0.586927 0.000000 -0.276675
v -0.179709 0.000000 -0.146729
v -0.373318 0.000000 -0.206988
v -0.000000 0.000000 -0.097819
vt 0.183288 0.398681
vt 0.816712 0.398681
vt 0.500000 0.702638
vt 0.500000 0.297362
vt 0.816712 0.601319
vt 0.183288 0.601319
vt 0.500000 0.500000
vt 0.134293 0.500000
vt 0.317146 0.324510
vt 0.500000 0.398681
vt 0.341644 0.550659
vt 0.341644 0.449341
vt 0.682854 0.324510
vt 0.865707 0.500000
vt 0.658356 0.550659
vt 0.658356 0.449341
vt 0.682854 0.675490
vt 0.317146 0.675490
vt 0.500000 0.601319
vt 0.262466 0.575989
vt 0.146754 0.552447
vt 0.237968 0.474670
vt 0.341644 0.500000
vt 0.250217 0.525330
vt 0.146754 0.447553
vt 0.241406 0.356713
vt 0.329395 0.386925
vt 0.244093 0.418133
vt 0.405348 0.304267
vt 0.500000 0.348022
vt 0.420822 0.424011
vt 0.414698 0.367474
vt 0.500000 0.449341
vt 0.420822 0.525330
vt 0.420822 0.474670
vt 0.594652 0.304267
vt 0.670605 0.386925
vt 0.579178 0.424011
vt 0.585302 0.367474
vt 0.758594 0.356713
vt 0.853246 0.447553
vt 0.762032 0.474670
vt 0.755907 0.418133
vt 0.853246 0.552447
vt 0.737534 0.575989
vt 0.658356 0.500000
vt 0.749783 0.525330
vt 0.579178 0.525330
vt 0.579178 0.474670
vt 0.758594 0.643287
vt 0.591427 0.638404
vt 0.579178 0.575989
vt 0.664480 0.607197
vt 0.594652 0.695733
vt 0.405348 0.695733
vt 0.408573 0.638404
vt 0.500000 0.663734
vt 0.241406 0.643287
vt 0.420822 0.575989
vt 0.335520 0.607197
vt 0.500000 0.550659
vn 0.000000 1.000000 0.000000
vn 0.000000 1.000000 0.000000
vn 0.000000 1.000000 0.000000
vn 0.000000 1.000000 0.000000
vn 0.000000 1.000000 0.000000
vn 0.000000 1.000000 0.000000
vn 0.000000 1.000000 0.000000
vn 0.000000 1.000000 0.000000
vn 0.000000 1.000000 0.000000
vn 0.000000 1.000000 0.000000
vn 0.000000 1.000000 0.000000
vn 0.000000 1.000000 0.000000
vn 0.000000 1.000000 0.000000
vn 0.000000 1.000000 0.000000
vn 0.000000 1.000000 0.000000
vn 0.000000 1.000000 0.000000
vn 0.000000 1.000000 0.000000
vn 0.000000 1.000000 0.000000
vn 0.000000 1.000000 0.000000
vn 0.000000 1.000000 0.000000
vn 0.000000 1.000000 0.000000
vn 0.000000 1.000000 0.000000
vn 0.000000 1.000000 0.000000
vn 0.000000 1.000000 0.000000
vn 0.000000 1.000000 0.000000
vn 0.000000 1.000000 0.000000
vn 0.000000 1.000000 0.000000
vn 0.000000 1.000000 0.000000
vn 0.000000 1.000000 0.000000
vn 0.000000 1.000000 0.000000
vn 0.000000 1.000000 0.000000
vn 0.000000 1.000000 0.000000
vn 0.000000 1.000000 0.000000
vn 0.000000 1.000000 0.000000
vn 0.000000 1.000000 0.000000
vn 0.000000 1.000000 0.000000
vn 0.000000 1.000000 0.000000
vn 0.000000 1.000000 0.000000
vn 0.000000 1.000000 0.000000
vn 0.000000 1.000000 0.000000
vn 0.000000 1.000000 0.000000
vn 0.000000 1.000000 0.000000
vn 0.000000 1.000000 0.000000
vn 0.000000 1.000000 0.000000
vn 0.000000 1.000000 0.000000
vn 0.000000 1.000000 0.000000
vn 0.000000 1.000000 0.000000
vn 0.000000 1.000000 0.000000
vn 0.000000 1.000000 0.000000
vn 0.000000 1.000000 0.000000
vn 0.000000 1.000000 0.000000
vn 0.000000 1.000000 0.000000
vn 0.000000 1.000000 0.000000
vn 0.000000 1.000000 0.000000
vn 0.000000 1.000000 0.000000
vn 0.000000 1.000000 0.000000
vn 0.000000 1.000000 0.000000
vn 0.000000 1.000000 0.000000
vn 0.000000 1.000000 0.000000
vn 0.000000 1.000000 0.000000
vn 0.000000 1.000000 0.000000
s 1
g pDisc1
usemtl phong1SG
f 23/23/1 11/11/2 20/20/3 24/24/4
f 20/20/3 6/6/5 21/21/6 24/24/4
f 21/21/6 8/8/7 22/22/8 24/24/4
f 22/22/8 12/12/9 23/23/1 24/24/4
f 22/22/8 8/8/7 25/25/10 28/28/11
f 25/25/10 1/1/12 26/26/13 28/28/11
f 26/26/13 9/9/14 27/27/15 28/28/11
f 27/27/15 12/12/9 22/22/8 28/28/11
f 27/27/15 9/9/14 29/29/16 32/32/17
f 29/29/16 4/4/18 30/30/19 32/32/17
f 30/30/19 10/10/20 31/31/21 32/32/17
f 31/31/21 12/12/9 27/27/15 32/32/17
f 31/31/21 10/10/20 33/33/22 35/35/23
f 33/33/22 7/7/24 34/34/25 35/35/23
f 34/34/25 11/11/2 23/23/1 35/35/23
f 23/23/1 12/12/9 31/31/21 35/35/23
f 38/38/26 10/10/20 30/30/19 39/39/27
f 30/30/19 4/4/18 36/36/28 39/39/27
f 36/36/28 13/13/29 37/37/30 39/39/27
f 37/37/30 16/16/31 38/38/26 39/39/27
f 37/37/30 13/13/29 40/40/32 43/43/33
f 40/40/32 2/2/34 41/41/35 43/43/33
f 41/41/35 14/14/36 42/42/37 43/43/33
f 42/42/37 16/16/31 37/37/30 43/43/33
f 42/42/37 14/14/36 44/44/38 47/47/39
f 44/44/38 5/5/40 45/45/41 47/47/39
f 45/45/41 15/15/42 46/46/43 47/47/39
f 46/46/43 16/16/31 42/42/37 47/47/39
f 46/46/43 15/15/42 48/48/44 49/49/45
f 48/48/44 7/7/24 33/33/22 49/49/45
f 33/33/22 10/10/20 38/38/26 49/49/45
f 38/38/26 16/16/31 46/46/43 49/49/45
f 52/52/46 15/15/42 45/45/41 53/53/47
f 45/45/41 5/5/40 50/50/48 53/53/47
f 50/50/48 17/17/49 51/51/50 53/53/47
f 51/51/50 19/19/51 52/52/46 53/53/47
f 51/51/50 17/17/49 54/54/52 57/57/53
f 54/54/52 3/3/54 55/55/55 57/57/53
f 55/55/55 18/18/56 56/56/57 57/57/53
f 56/56/57 19/19/51 51/51/50 57/57/53
f 56/56/57 18/18/56 58/58/58 60/60/59
f 58/58/58 6/6/5 20/20/3 60/60/59
f 20/20/3 11/11/2 59/59/60 60/60/59
f 59/59/60 19/19/51 56/56/57 60/60/59
f 59/59/60 11/11/2 34/34/25 61/61/61
f 34/34/25 7/7/24 48/48/44 61/61/61
f 48/48/44 15/15/42 52/52/46 61/61/61
f 52/52/46 19/19/51 59/59/60 61/61/61
