# Blender 3.6.2
# www.blender.org
mtllib flipizq.mtl
o flipizq
v 0.056680 0.063861 0.008231
v 0.115249 0.063861 -0.056867
v 0.056680 0.074748 0.008231
v 0.115249 0.074748 -0.056867
v 0.177822 0.063861 -0.166246
v 0.177822 0.074748 -0.166246
v 0.238275 0.063861 -0.309201
v 0.238275 0.074748 -0.309201
v 0.290690 0.063861 -0.471738
v 0.290690 0.074748 -0.471738
v 0.329935 0.063861 -0.637946
v 0.329935 0.074748 -0.637946
v 0.352170 0.063861 -0.791557
v 0.352170 0.074748 -0.791557
v 0.355218 0.063861 -0.917533
v 0.355218 0.074748 -0.917533
v 0.338781 0.063861 -1.003544
v 0.338781 0.074748 -1.003544
v 0.304468 0.063861 -1.041169
v 0.304468 0.074748 -1.041169
v 0.255636 0.063861 -1.026726
v 0.255636 0.074748 -1.026726
v 0.197067 0.063861 -0.961629
v 0.197067 0.074748 -0.961629
v 0.134493 0.063861 -0.852250
v 0.134493 0.074748 -0.852250
v 0.074040 0.063861 -0.709295
v 0.074040 0.074748 -0.709295
v 0.021626 0.063861 -0.546758
v 0.021626 0.074748 -0.546758
v -0.017620 0.063861 -0.380549
v -0.017620 0.074748 -0.380549
v -0.039855 0.063861 -0.226939
v -0.039855 0.074748 -0.226939
v -0.042903 0.063861 -0.100963
v -0.042903 0.074748 -0.100963
v -0.026466 0.063861 -0.014952
v -0.026466 0.074748 -0.014952
v 0.007848 0.063861 0.022673
v 0.007848 0.074748 0.022673
v 0.156158 0.063861 -0.509248
v 0.156158 0.074748 -0.509248
v 0.051769 -0.077631 0.075563
v 0.124597 -0.077631 0.004181
v 0.200514 -0.077631 -0.117459
v 0.272089 -0.077631 -0.277451
v 0.332316 -0.077631 -0.460132
v 0.375299 -0.077631 -0.647621
v 0.396832 -0.077631 -0.821564
v 0.394805 -0.077631 -0.964937
v 0.369418 -0.077631 -1.063703
v 0.323156 -0.077631 -1.108195
v 0.260546 -0.077631 -1.094058
v 0.187719 -0.077631 -1.022676
v 0.111802 -0.077631 -0.901036
v 0.040226 -0.077631 -0.741045
v -0.020001 -0.077631 -0.558364
v -0.062984 -0.077631 -0.370875
v -0.084516 -0.077631 -0.196931
v -0.082490 -0.077631 -0.053559
v -0.057102 -0.077631 0.045207
v -0.010840 -0.077631 0.089699
v 0.051769 0.066343 0.075563
v 0.124597 0.066343 0.004181
v 0.200514 0.066343 -0.117459
v 0.272089 0.066343 -0.277451
v 0.332316 0.066343 -0.460132
v 0.375299 0.066343 -0.647621
v 0.396832 0.066343 -0.821564
v 0.394805 0.066343 -0.964937
v 0.369418 0.066343 -1.063703
v 0.323156 0.066343 -1.108195
v 0.260546 0.066343 -1.094058
v 0.187719 0.066343 -1.022676
v 0.111802 0.066343 -0.901036
v 0.040226 0.066343 -0.741045
v -0.020000 0.066343 -0.558364
v -0.062984 0.066343 -0.370875
v -0.084516 0.066343 -0.196931
v -0.082490 0.066343 -0.053559
v -0.057102 0.066343 0.045207
v -0.010840 0.066343 0.089699
v 0.156158 -0.077631 -0.509248
v 0.156158 0.066343 -0.509248
vn 0.7434 -0.0000 0.6688
vn 0.8680 -0.0000 0.4966
vn 0.9210 -0.0000 0.3895
vn 0.9517 -0.0000 0.3069
vn 0.9732 -0.0000 0.2298
vn 0.9897 -0.0000 0.1433
vn 0.9997 -0.0000 0.0242
vn 0.9822 -0.0000 -0.1877
vn 0.7389 -0.0000 -0.6738
vn -0.2836 -0.0000 -0.9589
vn -0.7434 -0.0000 -0.6689
vn -0.7434 -0.0000 -0.6688
vn -0.8680 -0.0000 -0.4966
vn -0.9210 -0.0000 -0.3895
vn -0.9517 -0.0000 -0.3069
vn -0.9732 -0.0000 -0.2298
vn -0.9897 -0.0000 -0.1433
vn -0.9997 -0.0000 -0.0242
vn -0.9822 -0.0000 0.1877
vn -0.7389 -0.0000 0.6739
vn 0.2836 -0.0000 0.9589
vn -0.0000 -1.0000 -0.0000
vn -0.0000 1.0000 -0.0000
vn 0.7000 -0.0000 0.7142
vn 0.8483 -0.0000 0.5295
vn 0.9128 -0.0000 0.4084
vn 0.9497 -0.0000 0.3131
vn 0.9747 -0.0000 0.2235
vn 0.9924 -0.0000 0.1229
vn 0.9999 -0.0000 -0.0141
vn 0.9685 -0.0000 -0.2489
vn 0.6932 -0.0000 -0.7208
vn -0.2203 -0.0000 -0.9754
vn -0.2202 -0.0000 -0.9754
vn -0.7000 -0.0000 -0.7142
vn -0.8483 -0.0000 -0.5295
vn -0.9128 -0.0000 -0.4084
vn -0.9497 -0.0000 -0.3131
vn -0.9747 -0.0000 -0.2235
vn -0.9924 -0.0000 -0.1228
vn -0.9999 -0.0000 0.0141
vn -0.9685 -0.0000 0.2490
vn -0.6932 -0.0000 0.7208
vn 0.2202 -0.0000 0.9754
vt 0.375000 0.312500
vt 0.387500 0.312500
vt 0.375000 0.687500
vt 0.387500 0.687500
vt 0.400000 0.312500
vt 0.400000 0.687500
vt 0.412500 0.312500
vt 0.412500 0.687500
vt 0.425000 0.312500
vt 0.425000 0.687500
vt 0.437500 0.312500
vt 0.437500 0.687500
vt 0.450000 0.312500
vt 0.450000 0.687500
vt 0.462500 0.312500
vt 0.462500 0.687500
vt 0.475000 0.312500
vt 0.475000 0.687500
vt 0.487500 0.312500
vt 0.487500 0.687500
vt 0.500000 0.312500
vt 0.500000 0.687500
vt 0.512500 0.312500
vt 0.512500 0.687500
vt 0.525000 0.312500
vt 0.525000 0.687500
vt 0.537500 0.312500
vt 0.537500 0.687500
vt 0.550000 0.312500
vt 0.550000 0.687500
vt 0.562500 0.312500
vt 0.562500 0.687500
vt 0.575000 0.312500
vt 0.575000 0.687500
vt 0.587500 0.312500
vt 0.587500 0.687500
vt 0.600000 0.312500
vt 0.600000 0.687500
vt 0.612500 0.312500
vt 0.612500 0.687500
vt 0.625000 0.312500
vt 0.625000 0.687500
vt 0.626409 0.064408
vt 0.648603 0.107966
vt 0.500000 0.156250
vt 0.591842 0.029841
vt 0.548284 0.007647
vt 0.500000 -0.000000
vt 0.451716 0.007647
vt 0.408159 0.029841
vt 0.373591 0.064409
vt 0.351397 0.107966
vt 0.343750 0.156250
vt 0.351397 0.204534
vt 0.373591 0.248091
vt 0.408159 0.282659
vt 0.451716 0.304853
vt 0.548284 0.304853
vt 0.591841 0.282659
vt 0.626409 0.248091
vt 0.648603 0.204534
vt 0.656250 0.156250
vt 0.648603 0.892034
vt 0.626409 0.935591
vt 0.500000 0.843750
vt 0.591841 0.970159
vt 0.548284 0.992353
vt 0.500000 1.000000
vt 0.451716 0.992353
vt 0.408159 0.970159
vt 0.373591 0.935591
vt 0.351397 0.892034
vt 0.343750 0.843750
vt 0.351397 0.795466
vt 0.373591 0.751909
vt 0.408159 0.717341
vt 0.451716 0.695147
vt 0.548284 0.695147
vt 0.591842 0.717341
vt 0.626409 0.751908
vt 0.648603 0.795466
vt 0.656250 0.843750
s 0
g flipizq_PinballNuevo:phong2SG3
usemtl PinballNuevo:phong2SG3
f 1/1/1 2/2/1 3/3/1
f 3/3/1 2/2/1 4/4/1
f 2/2/2 5/5/2 4/4/2
f 4/4/2 5/5/2 6/6/2
f 5/5/3 7/7/3 6/6/3
f 6/6/3 7/7/3 8/8/3
f 7/7/4 9/9/4 8/8/4
f 8/8/4 9/9/4 10/10/4
f 9/9/5 11/11/5 10/10/5
f 10/10/5 11/11/5 12/12/5
f 11/11/6 13/13/6 12/12/6
f 12/12/6 13/13/6 14/14/6
f 13/13/7 15/15/7 14/14/7
f 14/14/7 15/15/7 16/16/7
f 15/15/8 17/17/8 16/16/8
f 16/16/8 17/17/8 18/18/8
f 17/17/9 19/19/9 18/18/9
f 18/18/9 19/19/9 20/20/9
f 19/19/10 21/21/10 20/20/10
f 20/20/10 21/21/10 22/22/10
f 21/21/11 23/23/11 22/22/11
f 22/22/12 23/23/12 24/24/12
f 23/23/13 25/25/13 24/24/13
f 24/24/13 25/25/13 26/26/13
f 25/25/14 27/27/14 26/26/14
f 26/26/14 27/27/14 28/28/14
f 27/27/15 29/29/15 28/28/15
f 28/28/15 29/29/15 30/30/15
f 29/29/16 31/31/16 30/30/16
f 30/30/16 31/31/16 32/32/16
f 31/31/17 33/33/17 32/32/17
f 32/32/17 33/33/17 34/34/17
f 33/33/18 35/35/18 34/34/18
f 34/34/18 35/35/18 36/36/18
f 35/35/19 37/37/19 36/36/19
f 36/36/19 37/37/19 38/38/19
f 37/37/20 39/39/20 38/38/20
f 38/38/20 39/39/20 40/40/20
f 39/39/21 1/41/21 40/40/21
f 40/40/21 1/41/21 3/42/21
f 2/43/22 1/44/22 41/45/22
f 5/46/22 2/43/22 41/45/22
f 7/47/22 5/46/22 41/45/22
f 9/48/22 7/47/22 41/45/22
f 11/49/22 9/48/22 41/45/22
f 13/50/22 11/49/22 41/45/22
f 15/51/22 13/50/22 41/45/22
f 17/52/22 15/51/22 41/45/22
f 19/53/22 17/52/22 41/45/22
f 21/54/22 19/53/22 41/45/22
f 23/55/22 21/54/22 41/45/22
f 25/56/22 23/55/22 41/45/22
f 27/57/22 25/56/22 41/45/22
f 29/21/22 27/57/22 41/45/22
f 31/58/22 29/21/22 41/45/22
f 33/59/22 31/58/22 41/45/22
f 35/60/22 33/59/22 41/45/22
f 37/61/22 35/60/22 41/45/22
f 39/62/22 37/61/22 41/45/22
f 1/44/22 39/62/22 41/45/22
f 3/63/23 4/64/23 42/65/23
f 4/64/23 6/66/23 42/65/23
f 6/66/23 8/67/23 42/65/23
f 8/67/23 10/68/23 42/65/23
f 10/68/23 12/69/23 42/65/23
f 12/69/23 14/70/23 42/65/23
f 14/70/23 16/71/23 42/65/23
f 16/71/23 18/72/23 42/65/23
f 18/72/23 20/73/23 42/65/23
f 20/73/23 22/74/23 42/65/23
f 22/74/23 24/75/23 42/65/23
f 24/75/23 26/76/23 42/65/23
f 26/76/23 28/77/23 42/65/23
f 28/77/23 30/22/23 42/65/23
f 30/22/23 32/78/23 42/65/23
f 32/78/23 34/79/23 42/65/23
f 34/79/23 36/80/23 42/65/23
f 36/80/23 38/81/23 42/65/23
f 38/81/23 40/82/23 42/65/23
f 40/82/23 3/63/23 42/65/23
g flipizq_PinballNuevo:phong1SG6
usemtl PinballNuevo:phong1SG6
f 43/1/24 44/2/24 63/3/24
f 63/3/24 44/2/24 64/4/24
f 44/2/25 45/5/25 64/4/25
f 64/4/25 45/5/25 65/6/25
f 45/5/26 46/7/26 65/6/26
f 65/6/26 46/7/26 66/8/26
f 46/7/27 47/9/27 66/8/27
f 66/8/27 47/9/27 67/10/27
f 47/9/28 48/11/28 67/10/28
f 67/10/28 48/11/28 68/12/28
f 48/11/29 49/13/29 68/12/29
f 68/12/29 49/13/29 69/14/29
f 49/13/30 50/15/30 69/14/30
f 69/14/30 50/15/30 70/16/30
f 50/15/31 51/17/31 70/16/31
f 70/16/31 51/17/31 71/18/31
f 51/17/32 52/19/32 71/18/32
f 71/18/32 52/19/32 72/20/32
f 52/19/33 53/21/33 72/20/33
f 72/20/34 53/21/34 73/22/34
f 53/21/35 54/23/35 73/22/35
f 73/22/35 54/23/35 74/24/35
f 54/23/36 55/25/36 74/24/36
f 74/24/36 55/25/36 75/26/36
f 55/25/37 56/27/37 75/26/37
f 75/26/37 56/27/37 76/28/37
f 56/27/38 57/29/38 76/28/38
f 76/28/38 57/29/38 77/30/38
f 57/29/39 58/31/39 77/30/39
f 77/30/39 58/31/39 78/32/39
f 58/31/40 59/33/40 78/32/40
f 78/32/40 59/33/40 79/34/40
f 59/33/41 60/35/41 79/34/41
f 79/34/41 60/35/41 80/36/41
f 60/35/42 61/37/42 80/36/42
f 80/36/42 61/37/42 81/38/42
f 61/37/43 62/39/43 81/38/43
f 81/38/43 62/39/43 82/40/43
f 62/39/44 43/41/44 82/40/44
f 82/40/44 43/41/44 63/42/44
f 44/43/22 43/44/22 83/45/22
f 45/46/22 44/43/22 83/45/22
f 46/47/22 45/46/22 83/45/22
f 47/48/22 46/47/22 83/45/22
f 48/49/22 47/48/22 83/45/22
f 49/50/22 48/49/22 83/45/22
f 50/51/22 49/50/22 83/45/22
f 51/52/22 50/51/22 83/45/22
f 52/53/22 51/52/22 83/45/22
f 53/54/22 52/53/22 83/45/22
f 54/55/22 53/54/22 83/45/22
f 55/56/22 54/55/22 83/45/22
f 56/57/22 55/56/22 83/45/22
f 57/21/22 56/57/22 83/45/22
f 58/58/22 57/21/22 83/45/22
f 59/59/22 58/58/22 83/45/22
f 60/60/22 59/59/22 83/45/22
f 61/61/22 60/60/22 83/45/22
f 62/62/22 61/61/22 83/45/22
f 43/44/22 62/62/22 83/45/22
f 63/63/23 64/64/23 84/65/23
f 64/64/23 65/66/23 84/65/23
f 65/66/23 66/67/23 84/65/23
f 66/67/23 67/68/23 84/65/23
f 67/68/23 68/69/23 84/65/23
f 68/69/23 69/70/23 84/65/23
f 69/70/23 70/71/23 84/65/23
f 70/71/23 71/72/23 84/65/23
f 71/72/23 72/73/23 84/65/23
f 72/73/23 73/74/23 84/65/23
f 73/74/23 74/75/23 84/65/23
f 74/75/23 75/76/23 84/65/23
f 75/76/23 76/77/23 84/65/23
f 76/77/23 77/22/23 84/65/23
f 77/22/23 78/78/23 84/65/23
f 78/78/23 79/79/23 84/65/23
f 79/79/23 80/80/23 84/65/23
f 80/80/23 81/81/23 84/65/23
f 81/81/23 82/82/23 84/65/23
f 82/82/23 63/63/23 84/65/23
